<svg width="596" height="527" viewBox="0 0 596 527" fill="none" xmlns="http://www.w3.org/2000/svg">
<g opacity="0.3" clip-path="url(#clip0_1590_6588)">
<g opacity="0.9">
<path d="M1.79364 185.215C-3.64765 260.586 124.57 331.264 288.175 343.08C451.78 354.896 588.82 303.374 594.261 228.004C599.702 152.633 471.485 81.9547 307.88 70.1391C144.274 58.3234 7.23492 109.845 1.79364 185.215Z" stroke="url(#paint0_linear_1590_6588)" stroke-width="0.8" stroke-miterlimit="10"/>
<path d="M12.6831 200.952C10.548 274.641 138.511 338.137 298.496 342.774C458.481 347.411 589.906 291.434 592.041 217.745C594.176 144.056 466.213 80.5601 306.228 75.9228C146.243 71.2854 14.8183 127.263 12.6831 200.952Z" stroke="url(#paint1_linear_1590_6588)" stroke-width="0.8" stroke-miterlimit="10"/>
<path d="M304.463 81.6287C148.124 84.167 22.3336 144.606 23.5024 216.624C24.6713 288.641 152.357 344.965 308.695 342.427C465.034 339.889 590.824 279.449 589.656 207.432C588.487 135.414 460.802 79.0904 304.463 81.6287Z" stroke="url(#paint2_linear_1590_6588)" stroke-width="0.8" stroke-miterlimit="10"/>
<path d="M302.773 87.384C150.063 97.1005 29.8948 162.004 34.369 232.349C38.8433 302.695 166.266 351.845 318.975 342.128C471.685 332.412 591.853 267.509 587.379 197.163C582.905 126.817 455.482 77.6675 302.773 87.384Z" stroke="url(#paint3_linear_1590_6588)" stroke-width="0.8" stroke-miterlimit="10"/>
<path d="M301.117 93.1182C152.019 110.003 37.4526 179.355 45.2259 248.019C52.9992 316.683 180.168 358.658 329.266 341.773C478.364 324.887 592.93 255.536 585.157 186.872C577.384 118.208 450.215 76.2329 301.117 93.1182Z" stroke="url(#paint4_linear_1590_6588)" stroke-width="0.8" stroke-miterlimit="10"/>
<path d="M299.492 98.8048C154.033 122.864 45.0961 196.686 56.1748 263.692C67.2534 330.697 194.152 365.512 339.612 341.453C485.071 317.394 594.008 243.572 582.929 176.566C571.85 109.561 444.951 74.7458 299.492 98.8048Z" stroke="url(#paint5_linear_1590_6588)" stroke-width="0.8" stroke-miterlimit="10"/>
<path d="M297.784 104.566C155.947 135.809 52.6235 214.086 67.0056 279.403C81.3878 344.72 208.029 372.343 349.866 341.1C491.704 309.857 595.027 231.58 580.645 166.263C566.263 100.946 439.622 73.3238 297.784 104.566Z" stroke="url(#paint6_linear_1590_6588)" stroke-width="0.8" stroke-miterlimit="10"/>
<path d="M296.121 110.276C157.924 148.686 60.2302 231.428 77.9164 295.084C95.6026 358.741 221.971 379.207 360.168 340.796C498.365 302.386 596.059 219.644 578.373 155.988C560.687 92.3311 434.318 71.8651 296.121 110.276Z" stroke="url(#paint7_linear_1590_6588)" stroke-width="0.8" stroke-miterlimit="10"/>
<path d="M294.411 116.073C159.855 161.678 67.7973 248.884 88.7931 310.854C109.789 372.824 235.888 386.09 370.443 340.485C504.999 294.88 597.057 207.673 576.061 145.703C555.065 83.7334 428.966 70.4674 294.411 116.073Z" stroke="url(#paint8_linear_1590_6588)" stroke-width="0.8" stroke-miterlimit="10"/>
<path d="M292.719 121.789C161.783 174.568 75.3347 266.237 99.632 326.537C123.929 386.838 249.771 392.935 380.708 340.157C511.644 287.378 598.092 195.71 573.795 135.409C549.497 75.1084 423.656 69.0106 292.719 121.789Z" stroke="url(#paint9_linear_1590_6588)" stroke-width="0.8" stroke-miterlimit="10"/>
<path d="M291.042 127.475C163.736 187.419 82.9097 283.552 110.512 342.194C138.114 400.836 263.692 399.781 390.998 339.837C518.304 279.893 599.13 183.76 571.528 125.118C543.926 66.4761 418.348 67.5315 291.042 127.475Z" stroke="url(#paint10_linear_1590_6588)" stroke-width="0.8" stroke-miterlimit="10"/>
<path d="M289.336 133.251C165.668 200.382 90.4735 300.983 121.385 357.949C152.297 414.915 277.609 406.675 401.277 339.544C524.946 272.414 600.14 171.813 569.228 114.846C538.317 57.8801 413.005 66.1201 289.336 133.251Z" stroke="url(#paint11_linear_1590_6588)" stroke-width="0.8" stroke-miterlimit="10"/>
<path d="M287.68 138.976C167.636 213.275 98.0497 318.323 132.254 373.608C166.459 428.892 291.502 413.477 411.546 339.178C531.59 264.879 601.177 159.831 566.972 104.546C532.768 49.2622 407.724 64.6769 287.68 138.976Z" stroke="url(#paint12_linear_1590_6588)" stroke-width="0.8" stroke-miterlimit="10"/>
<path d="M285.967 144.763C169.557 226.259 105.599 335.78 143.113 389.384C180.626 442.989 305.406 420.379 421.816 338.883C538.226 257.387 602.184 147.866 564.671 94.2616C527.157 40.6571 402.377 63.2674 285.967 144.763Z" stroke="url(#paint13_linear_1590_6588)" stroke-width="0.8" stroke-miterlimit="10"/>
<path d="M284.331 150.54C171.549 239.211 113.215 353.201 154.037 405.143C194.86 457.085 319.381 427.31 432.164 338.638C544.946 249.967 603.281 135.977 562.458 84.0348C521.635 32.0929 397.114 61.8682 284.331 150.54Z" stroke="url(#paint14_linear_1590_6588)" stroke-width="0.8" stroke-miterlimit="10"/>
<path d="M282.699 156.235C173.538 252.086 120.809 370.533 164.926 420.795C209.042 471.056 333.299 434.099 442.459 338.249C551.62 242.398 604.349 123.951 560.232 73.6896C516.116 23.428 391.86 60.385 282.699 156.235Z" stroke="url(#paint15_linear_1590_6588)" stroke-width="0.8" stroke-miterlimit="10"/>
<path d="M281.013 161.992C175.497 265.015 128.4 387.916 175.817 436.499C223.235 485.082 347.212 440.949 452.728 337.925C558.243 234.902 605.341 112.001 557.923 63.4181C510.506 14.8355 386.529 58.9684 281.013 161.992Z" stroke="url(#paint16_linear_1590_6588)" stroke-width="0.8" stroke-miterlimit="10"/>
<path d="M279.322 167.724C177.433 277.928 135.958 405.299 186.684 452.215C237.41 499.131 361.129 447.826 463.018 337.621C564.906 227.417 606.382 100.046 555.655 53.1304C504.929 6.21447 381.21 57.5198 279.322 167.724Z" stroke="url(#paint17_linear_1590_6588)" stroke-width="0.8" stroke-miterlimit="10"/>
<path d="M277.666 173.472C179.402 290.849 143.534 422.674 197.551 467.912C251.569 513.151 375.017 454.67 473.281 337.293C571.544 219.917 607.413 88.0909 553.395 42.8529C499.378 -2.38522 375.929 56.0949 277.666 173.472Z" stroke="url(#paint18_linear_1590_6588)" stroke-width="0.8" stroke-miterlimit="10"/>
<path d="M275.986 179.244C181.36 303.797 151.117 440.083 208.438 483.647C265.759 527.212 388.937 461.557 483.563 337.003C578.19 212.45 608.432 76.1637 551.111 32.5996C493.791 -10.9646 370.613 54.6902 275.986 179.244Z" stroke="url(#paint19_linear_1590_6588)" stroke-width="0.8" stroke-miterlimit="10"/>
<path d="M274.305 184.984C183.316 316.708 158.699 457.451 219.322 499.342C279.945 541.233 402.851 468.41 493.841 336.686C584.83 204.962 609.447 64.2191 548.824 22.3279C488.2 -19.5634 365.294 53.2604 274.305 184.984Z" stroke="url(#paint20_linear_1590_6588)" stroke-width="0.8" stroke-miterlimit="10"/>
<path d="M272.613 190.626C185.23 329.522 166.216 474.735 230.143 514.968C294.071 555.202 416.733 475.221 504.116 336.325C591.5 197.43 610.514 52.2171 546.586 11.9834C482.659 -28.2502 359.997 51.7309 272.613 190.626Z" stroke="url(#paint21_linear_1590_6588)" stroke-width="0.8" stroke-miterlimit="10"/>
</g>
</g>
<defs>
<linearGradient id="paint0_linear_1590_6588" x1="-93.9049" y1="54.5367" x2="-93.8556" y2="350.75" gradientUnits="userSpaceOnUse">
<stop offset="0.07" stop-color="#582BAF"/>
<stop offset="0.25" stop-color="#5F33B7"/>
<stop offset="0.54" stop-color="#744ACF"/>
<stop offset="0.85" stop-color="#926BF2"/>
</linearGradient>
<linearGradient id="paint1_linear_1590_6588" x1="-86.1022" y1="77.609" x2="-73.6021" y2="366.313" gradientUnits="userSpaceOnUse">
<stop offset="0.07" stop-color="#582BAF"/>
<stop offset="0.25" stop-color="#5F33B7"/>
<stop offset="0.54" stop-color="#744ACF"/>
<stop offset="0.85" stop-color="#926BF2"/>
</linearGradient>
<linearGradient id="paint2_linear_1590_6588" x1="559.111" y1="31.4437" x2="11.7633" y2="228.12" gradientUnits="userSpaceOnUse">
<stop offset="0.07" stop-color="#582BAF"/>
<stop offset="0.25" stop-color="#5F33B7"/>
<stop offset="0.54" stop-color="#744ACF"/>
<stop offset="0.85" stop-color="#926BF2"/>
</linearGradient>
<linearGradient id="paint3_linear_1590_6588" x1="549.379" y1="26.5414" x2="23.4224" y2="244.123" gradientUnits="userSpaceOnUse">
<stop offset="0.07" stop-color="#582BAF"/>
<stop offset="0.25" stop-color="#5F33B7"/>
<stop offset="0.54" stop-color="#744ACF"/>
<stop offset="0.85" stop-color="#926BF2"/>
</linearGradient>
<linearGradient id="paint4_linear_1590_6588" x1="539.714" y1="21.6398" x2="35.1075" y2="260.15" gradientUnits="userSpaceOnUse">
<stop offset="0.07" stop-color="#582BAF"/>
<stop offset="0.25" stop-color="#5F33B7"/>
<stop offset="0.54" stop-color="#744ACF"/>
<stop offset="0.85" stop-color="#926BF2"/>
</linearGradient>
<linearGradient id="paint5_linear_1590_6588" x1="530.032" y1="16.6676" x2="46.8118" y2="276.026" gradientUnits="userSpaceOnUse">
<stop offset="0.07" stop-color="#582BAF"/>
<stop offset="0.25" stop-color="#5F33B7"/>
<stop offset="0.54" stop-color="#744ACF"/>
<stop offset="0.85" stop-color="#926BF2"/>
</linearGradient>
<linearGradient id="paint6_linear_1590_6588" x1="520.296" y1="11.7734" x2="58.4869" y2="292.104" gradientUnits="userSpaceOnUse">
<stop offset="0.07" stop-color="#582BAF"/>
<stop offset="0.25" stop-color="#5F33B7"/>
<stop offset="0.54" stop-color="#744ACF"/>
<stop offset="0.85" stop-color="#926BF2"/>
</linearGradient>
<linearGradient id="paint7_linear_1590_6588" x1="510.574" y1="6.83467" x2="70.1482" y2="307.997" gradientUnits="userSpaceOnUse">
<stop offset="0.07" stop-color="#582BAF"/>
<stop offset="0.25" stop-color="#5F33B7"/>
<stop offset="0.54" stop-color="#744ACF"/>
<stop offset="0.85" stop-color="#926BF2"/>
</linearGradient>
<linearGradient id="paint8_linear_1590_6588" x1="500.798" y1="1.95674" x2="81.8492" y2="324.087" gradientUnits="userSpaceOnUse">
<stop offset="0.07" stop-color="#582BAF"/>
<stop offset="0.25" stop-color="#5F33B7"/>
<stop offset="0.54" stop-color="#744ACF"/>
<stop offset="0.85" stop-color="#926BF2"/>
</linearGradient>
<linearGradient id="paint9_linear_1590_6588" x1="491.085" y1="-2.97809" x2="93.4908" y2="340.062" gradientUnits="userSpaceOnUse">
<stop offset="0.07" stop-color="#582BAF"/>
<stop offset="0.25" stop-color="#5F33B7"/>
<stop offset="0.54" stop-color="#744ACF"/>
<stop offset="0.85" stop-color="#926BF2"/>
</linearGradient>
<linearGradient id="paint10_linear_1590_6588" x1="481.364" y1="-7.93682" x2="105.117" y2="355.95" gradientUnits="userSpaceOnUse">
<stop offset="0.07" stop-color="#582BAF"/>
<stop offset="0.25" stop-color="#5F33B7"/>
<stop offset="0.54" stop-color="#744ACF"/>
<stop offset="0.85" stop-color="#926BF2"/>
</linearGradient>
<linearGradient id="paint11_linear_1590_6588" x1="471.6" y1="-12.8308" x2="116.786" y2="371.991" gradientUnits="userSpaceOnUse">
<stop offset="0.07" stop-color="#582BAF"/>
<stop offset="0.25" stop-color="#5F33B7"/>
<stop offset="0.54" stop-color="#744ACF"/>
<stop offset="0.85" stop-color="#926BF2"/>
</linearGradient>
<linearGradient id="paint12_linear_1590_6588" x1="461.918" y1="-17.7405" x2="128.505" y2="387.981" gradientUnits="userSpaceOnUse">
<stop offset="0.07" stop-color="#582BAF"/>
<stop offset="0.25" stop-color="#5F33B7"/>
<stop offset="0.54" stop-color="#744ACF"/>
<stop offset="0.85" stop-color="#926BF2"/>
</linearGradient>
<linearGradient id="paint13_linear_1590_6588" x1="452.154" y1="-22.636" x2="140.193" y2="404.064" gradientUnits="userSpaceOnUse">
<stop offset="0.07" stop-color="#582BAF"/>
<stop offset="0.25" stop-color="#5F33B7"/>
<stop offset="0.54" stop-color="#744ACF"/>
<stop offset="0.85" stop-color="#926BF2"/>
</linearGradient>
<linearGradient id="paint14_linear_1590_6588" x1="442.476" y1="-27.5189" x2="151.879" y2="420.081" gradientUnits="userSpaceOnUse">
<stop offset="0.07" stop-color="#582BAF"/>
<stop offset="0.25" stop-color="#5F33B7"/>
<stop offset="0.54" stop-color="#744ACF"/>
<stop offset="0.85" stop-color="#926BF2"/>
</linearGradient>
<linearGradient id="paint15_linear_1590_6588" x1="432.822" y1="-32.4764" x2="163.638" y2="436.057" gradientUnits="userSpaceOnUse">
<stop offset="0.07" stop-color="#582BAF"/>
<stop offset="0.25" stop-color="#5F33B7"/>
<stop offset="0.54" stop-color="#744ACF"/>
<stop offset="0.85" stop-color="#926BF2"/>
</linearGradient>
<linearGradient id="paint16_linear_1590_6588" x1="423.071" y1="-37.3646" x2="175.34" y2="452.045" gradientUnits="userSpaceOnUse">
<stop offset="0.07" stop-color="#582BAF"/>
<stop offset="0.25" stop-color="#5F33B7"/>
<stop offset="0.54" stop-color="#744ACF"/>
<stop offset="0.85" stop-color="#926BF2"/>
</linearGradient>
<linearGradient id="paint17_linear_1590_6588" x1="413.34" y1="-42.2974" x2="186.992" y2="468.034" gradientUnits="userSpaceOnUse">
<stop offset="0.07" stop-color="#582BAF"/>
<stop offset="0.25" stop-color="#5F33B7"/>
<stop offset="0.54" stop-color="#744ACF"/>
<stop offset="0.85" stop-color="#926BF2"/>
</linearGradient>
<linearGradient id="paint18_linear_1590_6588" x1="403.658" y1="-47.1944" x2="198.726" y2="484.037" gradientUnits="userSpaceOnUse">
<stop offset="0.07" stop-color="#582BAF"/>
<stop offset="0.25" stop-color="#5F33B7"/>
<stop offset="0.54" stop-color="#744ACF"/>
<stop offset="0.85" stop-color="#926BF2"/>
</linearGradient>
<linearGradient id="paint19_linear_1590_6588" x1="393.925" y1="-52.0761" x2="210.42" y2="500.05" gradientUnits="userSpaceOnUse">
<stop offset="0.07" stop-color="#582BAF"/>
<stop offset="0.25" stop-color="#5F33B7"/>
<stop offset="0.54" stop-color="#744ACF"/>
<stop offset="0.85" stop-color="#926BF2"/>
</linearGradient>
<linearGradient id="paint20_linear_1590_6588" x1="384.191" y1="-56.9796" x2="222.101" y2="516.02" gradientUnits="userSpaceOnUse">
<stop offset="0.07" stop-color="#582BAF"/>
<stop offset="0.25" stop-color="#5F33B7"/>
<stop offset="0.54" stop-color="#744ACF"/>
<stop offset="0.85" stop-color="#926BF2"/>
</linearGradient>
<linearGradient id="paint21_linear_1590_6588" x1="374.496" y1="-61.9934" x2="233.708" y2="531.921" gradientUnits="userSpaceOnUse">
<stop offset="0.07" stop-color="#582BAF"/>
<stop offset="0.25" stop-color="#5F33B7"/>
<stop offset="0.54" stop-color="#744ACF"/>
<stop offset="0.85" stop-color="#926BF2"/>
</linearGradient>
<clipPath id="clip0_1590_6588">
<rect width="596" height="527" fill="white" transform="translate(596 527) rotate(180)"/>
</clipPath>
</defs>
</svg>
