<svg width="30" height="30" viewBox="0 0 30 30" fill="none" xmlns="http://www.w3.org/2000/svg">
<g clip-path="url(#clip0_1624_3324)">
<path d="M0 15C0 23.2704 6.72837 30 15 30C23.2716 30 30 23.2716 30 15C30 6.72837 23.2704 0 15 0C6.72957 0 0 6.72837 0 15ZM9.5024 15C9.5024 16.5156 9.59735 17.9627 9.76803 19.3173C8.10697 19.0457 6.625 18.6514 5.40144 18.1683C5.20913 17.1514 5.09495 16.0938 5.09495 15C5.09495 13.9062 5.20793 12.8486 5.40144 11.8317C6.625 11.3486 8.10697 10.9543 9.76803 10.6827C9.59735 12.0373 9.5024 13.4844 9.5024 15ZM4.72957 11.2849C3.70192 11.7332 2.85457 12.2488 2.2488 12.8185C2.8101 10.9351 4.07572 9.2536 5.83293 7.94471C5.35817 8.97957 4.98437 10.0986 4.72957 11.2849ZM7.11538 7.11538C8.26082 6.45673 9.54688 5.9351 10.9423 5.58894C10.4904 6.82692 10.1286 8.27524 9.88221 9.88221C8.27524 10.1298 6.82692 10.4904 5.58894 10.9423C5.9351 9.54688 6.45673 8.26082 7.11538 7.11538ZM10.5673 10.5673C11.9615 10.3786 13.4519 10.2704 15.0012 10.2704C16.5505 10.2704 18.0409 10.3786 19.4351 10.5673C19.6238 11.9603 19.732 13.4507 19.732 15.0012C19.732 16.5517 19.6238 18.0421 19.4351 19.4351C18.0421 19.6238 16.5517 19.732 15.0012 19.732C13.4507 19.732 11.9603 19.6238 10.5673 19.4351C10.3786 18.0421 10.2704 16.5505 10.2704 15.0012C10.2704 13.4519 10.3786 11.9615 10.5673 10.5685V10.5673ZM11.8329 5.40144C12.8498 5.20913 13.9075 5.09495 15.0012 5.09495C16.095 5.09495 17.1526 5.20793 18.1695 5.40144C18.6526 6.625 19.0469 8.10697 19.3185 9.76803C17.9639 9.59735 16.5168 9.5024 15.0012 9.5024C13.4856 9.5024 12.0385 9.59735 10.6839 9.76803C10.9555 8.10697 11.3498 6.625 11.8329 5.40144ZM19.0601 5.58894C20.4555 5.9351 21.7416 6.45673 22.887 7.11538C23.5457 8.26082 24.0673 9.54688 24.4135 10.9423C23.1755 10.4904 21.7272 10.1298 20.1202 9.88221C19.8726 8.27524 19.512 6.82692 19.0601 5.58894ZM20.5 15C20.5 13.4844 20.405 12.0373 20.2344 10.6827C21.8954 10.9543 23.3774 11.3486 24.601 11.8317C24.7933 12.8486 24.9075 13.9062 24.9075 15C24.9075 16.0938 24.7945 17.1526 24.601 18.1683C23.3774 18.6514 21.8954 19.0457 20.2344 19.3173C20.405 17.9627 20.5 16.5144 20.5 15ZM24.1695 7.94591C25.9267 9.25481 27.1923 10.9375 27.7536 12.8197C27.1478 12.2488 26.3005 11.7344 25.2728 11.2861C25.018 10.0998 24.6442 8.98197 24.1695 7.94591ZM25.2728 18.7151C26.3005 18.2668 27.149 17.7512 27.7536 17.1803C27.1923 19.0637 25.9267 20.7452 24.1683 22.0553C24.643 21.0192 25.0168 19.9002 25.2716 18.7151H25.2728ZM22.887 22.8858C21.7416 23.5445 20.4555 24.0661 19.0601 24.4123C19.512 23.1743 19.8726 21.726 20.1202 20.119C21.7272 19.8714 23.1755 19.5108 24.4135 19.0589C24.0673 20.4543 23.5457 21.7404 22.887 22.8858ZM18.1707 24.5998C17.1538 24.7921 16.0962 24.9062 15.0024 24.9062C13.9087 24.9062 12.8498 24.7933 11.8341 24.5998C11.351 23.3762 10.9567 21.8942 10.6851 20.2332C12.0397 20.4038 13.488 20.4988 15.0024 20.4988C16.5168 20.4988 17.9651 20.4038 19.3197 20.2332C19.0481 21.8942 18.6538 23.3762 18.1707 24.5998ZM10.9435 24.4123C9.54808 24.0661 8.26202 23.5445 7.11659 22.8858C6.45793 21.7404 5.9363 20.4543 5.59014 19.0589C6.82812 19.5108 8.27644 19.8726 9.88341 20.119C10.131 21.726 10.4916 23.1743 10.9435 24.4123ZM5.83413 22.0565C4.07692 20.7476 2.8113 19.0649 2.2488 17.1815C2.85457 17.7524 3.70192 18.2668 4.72957 18.7163C4.98437 19.9026 5.35817 21.0216 5.83413 22.0565ZM1.91827 15C1.91827 13.9627 2.90986 12.994 4.54688 12.2043C4.40385 13.1082 4.32812 14.0421 4.32812 15C4.32812 15.9579 4.40385 16.893 4.54688 17.7957C2.90986 17.006 1.91827 16.0373 1.91827 15ZM11.1406 2.10216C9.31611 3.02524 7.73678 4.57812 6.55769 6.55769C4.57812 7.73678 3.02524 9.3137 2.10216 11.1382C3.39784 6.80769 6.8101 3.39663 11.1406 2.10216ZM12.8197 2.2476C12.2488 2.85337 11.7344 3.70072 11.2849 4.72837C10.0986 4.98317 8.97957 5.35697 7.94471 5.83173C9.2536 4.07452 10.9363 2.80889 12.8197 2.24639V2.2476ZM17.7969 4.54567C16.893 4.40264 15.9591 4.32692 15.0012 4.32692C14.0433 4.32692 13.1082 4.40264 12.2043 4.54567C12.994 2.90865 13.9639 1.91707 15.0012 1.91707C16.0385 1.91707 17.0072 2.90865 17.7969 4.54567ZM17.1815 2.2476C19.0649 2.80889 20.7464 4.07452 22.0553 5.83173C21.0204 5.35697 19.9014 4.98317 18.7151 4.72837C18.2668 3.70072 17.7512 2.85337 17.1815 2.2476ZM27.8978 11.1394C26.9748 9.3149 25.4231 7.73678 23.4423 6.55769C22.2632 4.57692 20.6851 3.02524 18.8606 2.10216C23.1911 3.39663 26.6034 6.80889 27.8978 11.1394ZM28.0817 14.9988C28.0817 16.0361 27.0901 17.0048 25.4531 17.7957C25.5962 16.8918 25.6719 15.9567 25.6719 14.9988C25.6719 14.0409 25.5962 13.1058 25.4531 12.2031C27.0901 12.9928 28.0817 13.9615 28.0817 14.9988ZM18.8606 27.8966C20.6851 26.9736 22.2632 25.4219 23.4411 23.4411C25.4219 22.262 26.9748 20.6827 27.8978 18.8582C26.6034 23.1899 23.1923 26.6022 18.8606 27.8966ZM17.1803 27.7512C17.7512 27.1454 18.2656 26.2981 18.7139 25.2704C19.9002 25.0156 21.0192 24.6418 22.0541 24.1671C20.7452 25.9243 19.0625 27.1899 17.1803 27.7512ZM12.2031 25.4531C13.107 25.5962 14.0421 25.6719 14.9988 25.6719C15.9555 25.6719 16.8918 25.5962 17.7945 25.4531C17.0048 27.0901 16.0361 28.0817 14.9988 28.0817C13.9615 28.0817 12.9928 27.0901 12.2031 25.4531ZM12.8185 27.7512C10.9351 27.1899 9.2524 25.9243 7.94351 24.1659C8.97957 24.6406 10.0986 25.0144 11.2837 25.2704C11.732 26.2981 12.2476 27.1466 12.8185 27.7512ZM2.10216 18.8594C3.02524 20.6839 4.57812 22.262 6.55769 23.4411C7.73678 25.4219 9.3149 26.9736 11.1394 27.8966C6.80889 26.6022 3.39663 23.1899 2.10216 18.8594Z" fill="#E3DEFF"/>
</g>
<defs>
<clipPath id="clip0_1624_3324">
<rect width="30" height="30" fill="white"/>
</clipPath>
</defs>
</svg>
