<svg width="208" height="42" viewBox="0 0 208 42" fill="none" xmlns="http://www.w3.org/2000/svg">
<g clip-path="url(#clip0_1579_3291)">
<path d="M163.758 34.9632L164.131 41.1021C163.163 41.6262 160.551 41.8507 159.282 41.8507C152.718 41.8507 148.017 37.7331 147.868 30.4713H154.807C155.104 33.5407 157.492 35.4123 160.326 35.4123C160.998 35.3374 163.163 35.1129 163.758 34.9632ZM69.6069 41.4015H76.5452V2.69629H69.6069V41.4015ZM130.56 16.9206C133.842 16.9206 136.603 18.5677 137.871 20.9634L143.69 17.6692C141.452 13.1774 136.453 10.2577 130.56 10.2577C121.532 10.2577 114.669 17.1453 114.669 26.2039C114.669 35.2626 121.607 42.0004 130.634 42.0004C136.23 42.0004 141.004 39.4551 143.69 35.4123L137.871 31.8187C136.379 33.9898 133.693 35.3374 130.634 35.3374C125.412 35.3374 121.532 31.3696 121.532 26.1291C121.532 20.8885 125.337 16.9206 130.56 16.9206ZM65.6528 24.7815C65.6528 16.6212 59.2368 10.2577 51.0301 10.2577C42.2267 10.2577 35.363 17.1453 35.363 25.9794C35.363 35.1129 42.3758 42.0004 51.1793 42.0004C57.4462 42.0004 62.594 39.5299 64.8321 35.4123L59.3114 31.8187C57.8938 34.2145 54.7605 35.7118 51.3286 35.7118C46.4047 35.7118 43.0474 32.7172 42.3013 27.7761H65.4289C65.5782 26.8029 65.6528 25.605 65.6528 24.7815ZM42.5252 22.4607C43.5696 18.4929 46.4792 15.9474 50.6571 15.9474C54.835 15.9474 57.9684 18.6426 58.3415 22.4607H42.5252ZM110.789 24.7815C110.789 16.6212 104.373 10.2577 96.1664 10.2577C87.363 10.2577 80.4993 17.1453 80.4993 25.9794C80.4993 35.1129 87.5121 42.0004 96.3156 42.0004C102.582 42.0004 107.73 39.5299 109.968 35.4123L104.448 31.8187C103.03 34.2145 99.8968 35.7118 96.4649 35.7118C91.5409 35.7118 88.1837 32.7172 87.4376 27.7761H110.565C110.715 26.8029 110.789 25.605 110.789 24.7815ZM87.5869 22.4607C88.6313 18.4929 91.541 15.9474 95.7188 15.9474C99.8968 15.9474 103.03 18.6426 103.403 22.4607H87.5869ZM197.108 24.7815C197.108 16.6212 190.691 10.2577 182.484 10.2577C173.681 10.2577 166.817 17.1453 166.817 25.9794C166.817 35.1129 173.83 42.0004 182.634 42.0004C188.901 42.0004 194.049 39.5299 196.287 35.4123L190.766 31.8187C189.348 34.2145 186.215 35.7118 182.783 35.7118C177.859 35.7118 174.502 32.7172 173.756 27.7761H196.884C197.032 26.8029 197.108 25.605 197.108 24.7815ZM173.98 22.4607C175.025 18.4929 177.934 15.9474 182.111 15.9474C186.289 15.9474 189.423 18.6426 189.796 22.4607H173.98ZM201.062 41.4015H208V2.69629H201.062V41.4015ZM22.9785 34.2145C21.3371 35.2626 19.3228 35.7867 17.0101 35.7867C14.5481 35.7867 12.3845 35.1129 10.5194 33.7653C8.65423 32.4177 7.46054 30.621 6.8637 28.2253L0 29.2734C0.373027 31.8187 1.3429 34.0647 2.83501 36.0112C4.32711 37.9578 6.26686 39.3802 8.65423 40.4283C11.0416 41.4763 13.6528 42.0004 16.5624 42.0004C19.3975 42.0004 22.0086 41.5512 24.396 40.578C26.7834 39.6048 28.6484 38.1823 30.1405 36.3106C31.4089 34.6636 32.0803 32.7172 32.2296 30.4713H25.3659C25.2166 31.9686 24.4706 33.2412 22.9785 34.2145Z" fill="#52525B"/>
<path d="M154.733 27.7749H147.794V17.4435V10.8554V2.69514H154.733V10.8554H163.834V17.4435H154.733V27.7749ZM30.5884 23.5075C29.4694 22.0103 28.1264 20.9622 26.6343 20.2136C25.1422 19.5398 23.4262 18.9408 21.5612 18.4168L14.399 16.3206C12.6085 15.8713 11.191 15.2724 10.0719 14.5987C9.02744 13.9249 8.4306 12.8768 8.4306 11.4543C8.4306 10.4062 8.80362 9.50785 9.47507 8.68434C10.1465 7.86082 11.1164 7.26191 12.3101 6.81272C13.5038 6.36352 14.7721 6.21379 16.0403 6.21379C18.2039 6.28866 20.0691 6.88758 21.7104 8.08542C23.3516 9.28326 24.3961 10.9303 24.8437 12.9516L31.9313 11.7538C31.3345 9.28326 30.2899 7.11217 28.8726 5.39028C27.455 3.66838 25.6644 2.32082 23.4262 1.42244C21.2627 0.524055 18.8007 0 16.115 0C13.4292 0.074865 10.9672 0.44919 8.72902 1.42244C6.49085 2.32082 4.77492 3.66839 3.50663 5.46515C2.23833 7.18704 1.56689 9.35812 1.56689 11.8287C1.56689 14.8981 2.38756 17.219 4.10348 18.7162C5.8194 20.2136 7.90835 21.3366 10.4449 22.0103L20.8897 25.1547C22.4563 25.6038 23.5755 26.2776 24.3215 27.0262C24.5454 27.2508 24.6946 27.4755 24.8437 27.7749H32.1551C32.0059 26.053 31.4091 24.6306 30.5884 23.5075Z" fill="#333333"/>
</g>
<defs>
<clipPath id="clip0_1579_3291">
<rect width="208" height="42" fill="white"/>
</clipPath>
</defs>
</svg>
