<svg width="225" height="48" viewBox="0 0 225 48" fill="none" xmlns="http://www.w3.org/2000/svg">
<path d="M70.3518 38.2675C66.4947 39.4249 62.6282 40.5725 58.769 41.7301C55.8967 42.5884 53.0243 43.4465 50.1426 44.2848C49.5989 44.4445 49.0274 44.5243 48.4651 44.5243C35.6274 44.5344 22.7906 44.5344 9.9529 44.5344C9.80172 44.5344 9.64228 44.5442 9.4911 44.5344C9.0386 44.4844 8.80767 44.624 8.66685 45.113C8.15429 46.8095 6.6487 47.9273 4.91946 47.9971C2.75016 48.077 0.922595 46.5203 0.600564 44.3147C0.330306 42.4685 1.79544 40.4029 3.70381 39.9339C5.8141 39.415 7.90371 40.5127 8.63683 42.5186C8.81803 43.0108 9.17835 43.257 9.72197 43.257C22.5784 43.257 35.4472 43.257 48.3036 43.257C48.7757 43.257 49.2676 43.1871 49.7201 43.0474C56.3999 41.0815 63.0787 39.0956 69.7595 37.1197C70.212 36.99 70.7039 36.9103 71.175 36.9103C121.521 36.9103 171.865 36.9103 222.208 36.9103C222.898 36.9103 223.243 36.5643 223.243 35.8724C223.243 28.9868 223.243 22.101 223.243 15.2154C223.243 14.956 223.222 14.6965 223.213 14.437C222.982 14.3972 222.76 14.3273 222.53 14.3172C221.275 14.3073 220.028 14.3172 218.773 14.3172C217.587 14.3172 217.518 14.2276 217.818 13.0599C217.818 13.0399 217.839 13.02 217.859 13.0099C220.098 13.0099 222.338 13.01 224.568 13L224.568 38.1077C173.582 38.1077 122.605 38.1077 71.6172 38.1077C71.3552 38.1077 71.0849 38.0877 70.824 38.1177C70.6625 38.1376 70.5123 38.2375 70.3611 38.3073L70.3518 38.2675ZM7.55162 43.8757C7.55162 42.3788 6.23559 41.0815 4.72898 41.0815C3.22341 41.0815 1.90732 42.3987 1.91664 43.8856C1.91664 45.3826 3.24199 46.6798 4.73928 46.6699C6.25624 46.6699 7.55162 45.3625 7.55162 43.8657L7.55162 43.8757Z" fill="#333333"/>
<path d="M92.6695 16.0448C94.32 16.0448 95.9714 16.0448 97.6219 16.0448C98.3961 16.0448 98.5096 16.163 98.5495 16.9016C98.9172 23.667 93.8619 29.6741 86.9523 30.8067C79.7581 31.9884 72.8569 27.6356 71.0342 20.949C68.995 13.4548 73.856 5.90162 81.6018 4.29635C83.1409 3.98135 84.6895 3.93204 86.2496 4.07977C86.4733 4.09941 86.6971 4.1389 86.9009 4.20775C87.2675 4.32592 87.4209 4.60163 87.3694 4.96604C87.1866 6.08864 87.0028 7.21134 86.799 8.33404C86.6666 9.04312 86.6372 9.07269 85.9029 8.97406C82.9161 8.58019 80.3181 9.38768 78.2285 11.4557C75.7313 13.9275 74.957 16.9113 76.0979 20.1907C77.2399 23.48 79.6866 25.4298 83.2523 26.0304C86.9124 26.6411 90.9676 24.7601 92.7105 21.0771C92.9962 20.4862 92.9847 20.4665 92.2724 20.4665C90.7333 20.4665 89.1942 20.4566 87.6552 20.4665C87.2276 20.4665 87.0637 20.368 87.0847 19.9347C87.1152 18.8219 87.1152 17.6992 87.0847 16.5766C87.0847 16.1533 87.2171 16.0252 87.6552 16.035C89.3266 16.0546 90.9981 16.035 92.6695 16.035L92.6695 16.0448Z" fill="#333333"/>
<path d="M104.571 23.6075C104.571 21.3963 104.571 19.1849 104.571 16.9734C104.571 16.1479 104.768 15.9514 105.596 15.9514C108.253 15.9514 110.908 15.9021 113.564 15.971C115.093 16.0102 117.178 14.8309 117.207 12.472C117.237 10.4376 115.588 8.90436 113.573 8.88475C112.518 8.88475 111.46 8.88475 110.395 8.88475C109.704 8.88475 109.477 9.12051 109.468 9.81829C109.468 10.182 109.477 10.5457 109.468 10.9093C109.447 11.3811 109.27 11.6072 108.816 11.617C107.631 11.6465 106.436 11.6465 105.252 11.617C104.738 11.6072 104.571 11.3614 104.571 10.7323C104.571 9.18943 104.571 7.64634 104.571 6.09344C104.571 5.58231 104.59 5.06147 104.571 4.55034C104.55 4.17685 104.669 4 105.073 4C108.183 4.02951 111.293 3.97049 114.402 4.08832C117.749 4.21626 120.81 6.69289 121.788 10.0838C122.764 13.4647 121.57 16.9833 118.737 19.1455C118.026 19.6861 118.006 19.7745 118.411 20.5805C120.03 23.7746 121.649 26.9689 123.259 30.1632C123.308 30.2614 123.358 30.3499 123.406 30.4481C123.663 30.9788 123.663 30.9887 123.05 30.9887C121.867 30.9887 120.672 30.9691 119.487 30.9985C118.964 31.0182 118.678 30.8413 118.44 30.3695C116.989 27.4505 115.489 24.5512 114.047 21.632C113.761 21.0621 113.435 20.7672 112.754 20.8163C111.954 20.8752 111.155 20.8163 110.355 20.836C109.704 20.836 109.477 21.0719 109.477 21.7305C109.477 24.5609 109.477 27.3915 109.477 30.2319C109.477 30.9788 109.477 30.9887 108.746 30.9887C107.581 30.9887 106.417 30.9887 105.252 30.9887C104.581 30.9887 104.581 30.9887 104.581 30.3007C104.581 28.0698 104.581 25.8387 104.581 23.6075L104.571 23.6075Z" fill="#333333"/>
<path d="M140.9 6.40035C140.9 6.98206 140.9 7.56386 140.9 8.14557C140.9 8.56953 140.674 8.76681 140.281 8.83575C139.751 8.93439 139.219 9.01326 138.709 9.15123C135.347 10.0386 132.232 13.4304 132.458 17.9562C132.654 21.762 135.554 25.1636 139.367 25.9328C144.242 26.9188 149.077 23.4481 149.628 18.5477C149.874 16.3982 149.441 14.3868 148.183 12.6022C147.722 11.9515 147.672 11.557 148.576 11.1134C149.441 10.6893 150.297 10.226 151.151 9.79214C151.829 9.45689 152.007 9.49643 152.419 10.1372C154.158 12.8882 154.895 15.8954 154.433 19.1294C153.678 24.4931 150.728 28.2301 145.687 30.1429C137.933 33.0811 129.323 28.1609 127.81 20.0267C126.435 12.6219 131.063 5.72984 138.452 4.19174C138.993 4.08327 139.555 4.034 140.115 4.0045C140.763 3.96496 140.969 4.18181 140.979 4.82272C140.989 5.36509 140.979 5.89752 140.979 6.43979L140.881 6.43979L140.9 6.40035Z" fill="#333333"/>
<path d="M181.558 13.5342C181.558 16.0926 181.581 18.6412 181.558 21.1997C181.505 25.5491 178.368 29.308 173.774 30.5676C167.434 32.3094 160.822 28.6094 159.714 22.6955C159.627 22.2132 159.573 21.7114 159.573 21.2195C159.563 18.9856 159.573 16.7519 159.573 14.5181C159.573 13.7309 159.735 13.5834 160.626 13.5834C161.766 13.5834 162.907 13.5834 164.047 13.5834C164.784 13.5834 164.968 13.7604 164.968 14.4296C164.968 16.624 164.968 18.8086 164.968 21.0029C164.968 23.9255 167.608 26.228 170.832 26.1297C173.796 26.0412 176.206 23.7287 176.216 20.9438C176.216 15.7286 176.216 10.5033 176.216 5.28798C176.216 5.12064 176.216 4.94368 176.216 4.77633C176.239 4.2745 176.434 4.02854 176.965 4.01862C178.247 3.98908 179.528 3.999 180.81 4.01862C181.288 4.01862 181.558 4.26458 181.558 4.70743C181.558 4.87468 181.558 5.05183 181.558 5.21918C181.558 7.99414 181.558 10.7592 181.558 13.5342Z" fill="#333333"/>
<path d="M186.568 23.5761C186.568 21.3459 186.568 19.1156 186.568 16.8855C186.568 16.0529 186.752 15.8646 187.646 15.8646C190.345 15.8646 193.034 15.8348 195.732 15.8646C197.703 15.8943 199.199 14.4075 199.426 12.8217C199.703 10.8987 198.072 8.94604 196.04 8.92627C193.321 8.89651 190.602 8.92627 187.892 8.92627C187.708 8.92627 187.534 8.93615 187.359 8.92627C186.836 8.87674 186.589 8.64876 186.589 8.13328C186.579 7.03303 186.579 5.923 186.589 4.82274C186.589 4.22798 186.825 4.00989 187.451 4C188.528 4 189.605 4 190.683 4C192.438 4 194.182 4 195.937 4C200.216 4.02976 203.9 7.13219 204.484 11.2159C205.161 15.8745 201.674 20.2456 196.819 20.7214C195.486 20.8502 194.132 20.7611 192.777 20.7709C191.863 20.7709 191.689 20.9493 191.689 21.8414C191.689 24.6563 191.689 27.4714 191.689 30.2863C191.689 30.9901 191.689 31 190.94 31C189.729 31 188.518 31 187.297 31C186.589 31 186.579 31 186.579 30.3261C186.579 28.076 186.579 25.8261 186.579 23.5761L186.568 23.5761Z" fill="#333333"/>
<path d="M4.56836 20.9848C4.56836 17.9368 4.56836 14.8887 4.56836 11.8304C4.56836 11.0203 4.58838 11 5.34501 11C6.40391 11 7.47081 11 8.5297 11C9.26732 11 9.29738 11.0304 9.29738 11.7697C9.29738 12.8127 9.29738 13.8456 9.29738 14.8887C9.29738 15.5975 9.33539 15.638 10.015 15.638C13.1406 15.638 16.2572 15.638 19.3839 15.638C20.2476 15.638 20.2576 15.638 20.2576 16.5696C20.2576 17.6735 20.2576 18.7772 20.2576 19.881C20.2576 20.6406 20.2286 20.671 19.51 20.671C16.4714 20.671 13.4329 20.671 10.4023 20.671C10.2382 20.671 10.064 20.681 9.8989 20.671C9.45152 20.6304 9.29735 20.8531 9.30636 21.2987C9.32637 22.3823 9.30636 23.4659 9.30636 24.5493C9.31536 26.1697 9.1312 25.9771 10.6465 25.9771C14.6178 25.9771 18.5872 25.9771 22.5585 25.9771C22.7527 25.9771 22.9379 25.9771 23.132 25.9771C23.4133 25.9771 23.5684 26.1292 23.5684 26.4228C23.5684 27.7697 23.5684 29.1165 23.5684 30.4633C23.5684 30.8177 23.3932 30.9899 23.064 31C22.8988 31 22.7237 31 22.5585 31C16.8888 31 11.219 31 5.54923 31C5.35506 31 5.16991 31 4.97575 31C4.72353 30.9899 4.5884 30.8379 4.5884 30.5748C4.5884 30.3723 4.5884 30.1797 4.5884 29.9772C4.5884 26.9696 4.5884 23.962 4.5884 20.9646L4.56836 20.9848Z" fill="#333333"/>
<path d="M32.5886 17.51C32.5886 13.3554 32.5886 9.20074 32.5886 5.03617C32.5886 4.83882 32.5886 4.65131 32.5886 4.45396C32.5886 4.16772 32.7161 4 33.0096 4C34.3149 4 35.6304 4 36.9367 4C37.2312 4 37.3587 4.16772 37.3587 4.45396C37.3587 4.67099 37.3587 4.88824 37.3587 5.09533C37.3587 11.6875 37.3587 18.2796 37.3587 24.8618C37.3587 25.0296 37.3587 25.2073 37.3587 25.375C37.3678 26.0658 37.3971 26.0954 38.0953 26.0954C41.1664 26.0954 44.2395 26.0954 47.3025 26.0954C47.43 26.0954 47.5575 26.0954 47.685 26.0954C48.2739 26.0954 48.5684 26.3981 48.5684 27.0034C48.5684 28.1185 48.5684 29.2435 48.5684 30.3586C48.5684 30.931 48.4996 31 47.941 31C43.0222 31 38.1044 31 33.1856 31C32.6179 31 32.5684 30.931 32.5684 30.2797C32.5684 27.4178 32.5684 24.556 32.5684 21.6843C32.5684 20.283 32.5684 18.8817 32.5684 17.4804L32.5886 17.51Z" fill="#333333"/>
<path d="M14.0684 9C11.1741 9 8.2908 9 5.39754 9C4.56735 9 4.56836 9 4.56836 8.08437C4.56836 7.00415 4.56836 5.92392 4.56836 4.85396C4.56836 4.02063 4.58723 4 5.39754 4C10.2107 4 15.0229 4 19.826 4C20.8392 4 21.8523 4 22.8645 4C23.5197 4 23.5684 4.05141 23.5684 4.70978C23.5684 5.9033 23.5684 7.08644 23.5684 8.27974C23.5684 8.94848 23.5197 8.98974 22.8645 8.98974C19.9325 8.98974 16.9994 8.98974 14.0684 8.98974L14.0684 9Z" fill="#333333"/>
<path d="M59.0103 21C57.3957 21 55.7714 21 54.1568 21C53.5684 21 53.5684 21 53.5684 20.3927C53.5684 19.1379 53.5782 17.8727 53.5684 16.6177C53.5684 16.1825 53.6633 15.9903 54.1186 16.0004C57.4242 16.0206 60.7199 16.0206 64.0254 16.0004C64.4816 16.0004 64.5766 16.1927 64.5678 16.6279C64.5482 17.8626 64.5678 19.0973 64.5678 20.3319C64.5678 20.9898 64.5678 21 63.9588 21C62.3158 21 60.6826 21 59.0387 21L59.0103 21Z" fill="#333333"/>
<path d="M143.814 12.9899C143.528 12.8578 143.315 12.7765 143.112 12.6649C142.59 12.3805 142.079 12.0757 141.568 11.7813C141.813 11.2836 142.026 10.7859 142.292 10.3086C144.177 7.0078 146.084 3.70688 147.979 0.406164C148.256 -0.081298 148.32 -0.0915339 148.852 0.172561C149.299 0.395929 149.747 0.649789 150.195 0.873367C150.578 1.06624 150.673 1.27959 150.45 1.67568C148.756 4.58041 147.085 7.48513 145.401 10.4001C144.986 11.1212 144.592 11.8422 144.177 12.5634C144.081 12.7258 143.943 12.8578 143.814 13L143.814 12.9899Z" fill="#333333"/>
<path d="M217.1 12.1225C217.1 12.1225 217.069 12.1481 217.06 12.1651C216.751 13.1633 216.824 13.24 218.034 13.24C219.317 13.24 220.588 13.24 221.872 13.24C222.108 13.24 222.344 13.3082 222.568 13.3424C220.886 13.3424 219.203 13.3509 217.52 13.3424C217.079 13.3424 216.833 13.4533 216.659 13.8031C216.042 15.0058 214.956 15.7223 213.385 15.9528C211.139 16.2854 208.83 14.8182 208.594 12.9244C208.327 10.7748 210.184 9.14538 212.515 9.00882C214.371 8.89804 216.177 9.83636 216.803 11.5083C216.884 11.7216 216.997 11.9178 217.1 12.1225ZM215.601 12.4894C215.601 11.1757 214.31 10.1008 212.751 10.1093C211.19 10.1179 209.98 11.1927 209.917 12.5234C209.866 13.7604 211.19 14.8864 212.78 14.895C214.34 14.9034 215.601 13.8115 215.592 12.4894L215.601 12.4894Z" fill="#333333"/>
<path d="M159.574 6.48472C159.574 5.93049 159.574 5.37626 159.574 4.8313C159.586 4.23012 159.827 4.02352 160.622 4.01405C161.935 3.99532 163.25 3.99532 164.563 4.01405C165.31 4.02352 165.551 4.23012 165.563 4.80309C165.563 5.94923 165.575 7.09527 165.563 8.24141C165.563 8.76753 165.274 8.99297 164.599 8.99297C163.261 9.00234 161.912 9.00234 160.575 8.99297C159.852 8.99297 159.586 8.76753 159.574 8.20383C159.561 7.63076 159.574 7.05779 159.574 6.48472Z" fill="#333333"/>
<path d="M215.56 12.984C215.56 14.6416 214.458 16.0106 213.087 15.9999C211.689 15.9892 210.524 14.5668 210.57 13.0267C210.624 11.3583 211.689 10.0108 213.06 10.0001C214.431 9.9894 215.568 11.337 215.568 12.984L215.56 12.984Z" fill="#333333"/>
</svg>
