<svg width="227" height="49" viewBox="0 0 227 49" fill="none" xmlns="http://www.w3.org/2000/svg">
<path d="M15.2132 48.9974C12.1585 48.9974 9.48523 48.3643 7.19502 47.0962C4.90481 45.8282 3.13132 44.016 1.87944 41.6596C0.625937 39.3033 0 36.5001 0 33.2517C0 30.0033 0.635717 27.2297 1.90878 24.9328C3.18022 22.6358 4.95371 20.8731 7.22436 19.6446C9.49501 18.4161 12.1585 17.8027 15.2132 17.8027C17.1709 17.8027 19.0797 18.1094 20.9412 18.7245C22.8011 19.3395 24.3186 20.2201 25.4939 21.3694L23.2624 26.5388C22.2045 25.5495 21.0194 24.8058 19.7089 24.3111C18.3967 23.8164 17.1138 23.5674 15.862 23.5674C13.2376 23.5674 11.1919 24.4002 9.72322 26.0639C8.25455 27.7277 7.52103 30.1451 7.52103 33.3143C7.52103 36.4836 8.25618 38.9208 9.72322 40.6241C11.1919 42.3275 13.2376 43.18 15.862 43.18C17.0747 43.18 18.338 42.9425 19.6502 42.4676C20.9624 41.9927 22.1653 41.259 23.264 40.2696L25.4955 45.3797C24.2811 46.529 22.744 47.4211 20.8841 48.0542C19.0243 48.6874 17.1334 49.0057 15.2148 49.0057L15.2132 48.9974Z" fill="#333333"/>
<path d="M29.8872 48.4026V4.66602H37.2306V48.4026H29.8872Z" fill="#333333"/>
<path d="M187.993 48.4036L176.421 18.3945H183.999L192.34 41.7485H190.813L199.273 18.3945H204.501L212.902 41.7485H211.55L219.833 18.3945H227L215.428 48.4036H208.967L200.096 24.5154H203.21L194.517 48.4036H187.996H187.993Z" fill="#333333"/>
<path d="M145.381 24.9352C144.72 22.564 142.883 20.2885 140.07 18.3575C139.411 17.9057 138.702 17.4754 137.956 17.0747C138.52 16.0869 139.16 15.1437 139.876 14.2863C143.625 9.80117 150.406 6.66653 157.154 6.30211C162.938 5.98881 168.053 7.68228 171.557 11.0676C173.073 12.5318 174.364 14.377 175.324 16.4167H182.008C180.72 12.639 178.547 9.15479 175.835 6.53626C171.081 1.94561 164.33 -0.361267 156.823 0.046022C148.323 0.506077 140.016 4.41242 135.144 10.2431C134.014 11.5952 133.004 13.1271 132.136 14.7562C131.885 14.687 131.633 14.6194 131.38 14.5567C127.902 13.691 124.42 13.4998 121.315 14.006C118.697 14.4314 116.348 15.3598 114.385 16.7284L107.769 33.8856C108.167 36.298 109.042 38.5917 110.37 40.6034C114.296 46.5512 121.538 49.5209 128.818 48.1655L127.698 42.0034C122.852 42.9054 118.072 40.9893 115.521 37.1242C112.426 32.4329 113.678 26.1356 116.615 22.9927C119.28 20.14 124.195 19.2513 129.781 20.6116C129.021 23.2945 128.689 25.9757 128.889 28.3485C129.116 31.0247 130.056 33.1354 131.607 34.4529C133.092 35.7127 135.261 36.3294 137.555 36.1463C139.796 35.9666 141.889 35.0366 143.299 33.5954C145.716 31.1237 146.086 27.4647 145.382 24.9368L145.381 24.9352ZM139.498 28.985C139.031 29.7336 138.058 30.1376 137.216 29.9743C135.998 29.7402 135.476 28.4029 135.227 27.7631C134.392 25.6261 135.302 23.5352 135.603 22.9103C136.327 23.1741 138.435 24.0563 139.335 26.1818C139.61 26.8331 140.107 28.0072 139.498 28.985Z" fill="url(#paint0_linear_3244_5509)"/>
<path d="M176.58 28.9042C175.8 31.747 173.808 35.8331 168.75 39.1508C158.659 45.768 146.049 39.8615 145.516 39.6075L142.865 45.2716C143.897 45.7663 150.077 48.5613 157.673 48.5613C162.245 48.5613 167.332 47.5488 172.12 44.4092C176.492 41.5417 179.149 38.1746 180.762 35.0993L177.124 25.6641C177.047 26.7656 176.868 27.8506 176.58 28.9042Z" fill="url(#paint1_linear_3244_5509)"/>
<path d="M77.6342 41.7479L76.8763 39.624L76.1069 41.7479H77.6342Z" fill="#333333"/>
<path d="M85.3883 24.5146L86.9597 28.7491L88.5017 24.5146H85.3883Z" fill="#333333"/>
<path d="M77.5951 37.639L79.7696 43.7253H72.656L75.52 35.8219L69.2949 18.3926H63.3354C65.5768 19.8123 67.3584 21.7416 68.6347 24.1391C70.017 26.7379 70.7195 29.8412 70.7195 33.3666C70.7195 35.6009 70.4376 37.6704 69.8785 39.5535L73.2901 48.4017H79.8103L85.6067 32.4762L82.4999 24.1078L77.5983 37.639H77.5951Z" fill="#333333"/>
<path d="M105.127 18.3936L98.2249 37.8544L100.337 43.7263H93.413L96.1401 36.0339L89.7943 18.3936H84.5668L83.0671 22.5357H90.655L87.6851 30.6963L94.259 48.4027H100.721L107.526 30.754C107.531 30.0912 107.568 29.425 107.645 28.7572C108.088 24.9201 109.717 21.2495 112.111 18.6854C112.149 18.6458 112.188 18.6079 112.224 18.57L112.292 18.3936H105.125H105.127Z" fill="#333333"/>
<path d="M107.645 28.7575C107.568 29.4253 107.531 30.0915 107.526 30.7544L112.225 18.5703C112.188 18.6099 112.149 18.6462 112.113 18.6857C109.718 21.2498 108.09 24.9204 107.647 28.7575H107.645Z" fill="#333333"/>
<path d="M79.7679 43.7266L77.5951 37.6387L76.8762 39.6241L77.6342 41.7479H76.1069L76.8762 39.6241L75.5168 35.8232L72.6544 43.7266H79.7679Z" fill="#333333"/>
<path d="M83.0655 22.5361L82.495 24.1092L85.6035 32.4776L86.9597 28.7494L85.3883 24.5149H88.5017L86.9597 28.7494L87.6834 30.6968L90.6534 22.5361H83.0655Z" fill="#333333"/>
<path d="M100.336 43.7265L98.2233 37.8546L97.5142 39.8564L98.1939 41.7478H96.8426L97.5142 39.8564L96.1384 36.0342L93.4114 43.7265H100.336Z" fill="#333333"/>
<path d="M98.194 41.7478L97.5142 39.8564L96.8427 41.7478H98.194Z" fill="#333333"/>
<path d="M54.0473 48.9971C50.9926 48.9971 48.3487 48.3639 46.1172 47.0959C43.8856 45.8279 42.1529 44.0256 40.9189 41.6874C39.685 39.3508 39.0688 36.5773 39.0688 33.3685C39.0688 30.1596 39.685 27.396 40.9189 25.0792C42.1529 22.7608 43.8856 20.9701 46.1172 19.702C48.3487 18.434 50.9926 17.8008 54.0473 17.8008C57.102 17.8008 59.7541 18.4356 62.0068 19.702C64.2579 20.9701 66.0021 22.7625 67.2344 25.0792C68.4683 27.3976 69.0845 30.1596 69.0845 33.3685C69.0845 36.5773 68.4683 39.3508 67.2344 41.6874C66.0004 44.0256 64.2579 45.8279 62.0068 47.0959C59.7541 48.3639 57.102 48.9971 54.0473 48.9971ZM54.0473 43.2918C56.3571 43.2918 58.1974 42.4706 59.5699 40.825C60.9408 39.181 61.6254 36.6944 61.6254 33.3668C61.6254 30.0392 60.9392 27.5642 59.5699 25.9383C58.199 24.3141 56.3587 23.5028 54.0473 23.5028C51.7359 23.5028 49.8956 24.3158 48.5247 25.9383C47.1539 27.5625 46.4692 30.0392 46.4692 33.3668C46.4692 36.6944 47.1539 39.181 48.5247 40.825C49.894 42.469 51.7359 43.2918 54.0473 43.2918Z" fill="#333333"/>
<defs>
<linearGradient id="paint0_linear_3244_5509" x1="125.075" y1="5.56339" x2="168.735" y2="48.7225" gradientUnits="userSpaceOnUse">
<stop offset="0.15" stop-color="#926BF2"/>
<stop offset="0.47" stop-color="#744ACF"/>
<stop offset="0.77" stop-color="#5F33B7"/>
<stop offset="0.95" stop-color="#582BAF"/>
</linearGradient>
<linearGradient id="paint1_linear_3244_5509" x1="127.755" y1="2.85258" x2="171.414" y2="46.0116" gradientUnits="userSpaceOnUse">
<stop offset="0.15" stop-color="#926BF2"/>
<stop offset="0.47" stop-color="#744ACF"/>
<stop offset="0.77" stop-color="#5F33B7"/>
<stop offset="0.95" stop-color="#582BAF"/>
</linearGradient>
</defs>
</svg>
